<svg width="56" height="34" viewBox="0 0 56 34" fill="none" xmlns="http://www.w3.org/2000/svg">
<path d="M28 0L52.2487 23.25H3.75129L28 0Z" fill="#720000"/>
<path d="M28 33.5C16.8 33.5 7.33333 26.5 4 23H52C48.6667 26.5 39.2 33.5 28 33.5Z" fill="#720000"/>
<path d="M26.6065 2.91163L17.9421 25.7943L9.86022 20.7512L26.6065 2.91163Z" fill="#290000"/>
<circle cx="42.5" cy="21.5" r="0.5" fill="#D9D9D9"/>
<circle cx="43.5" cy="23.5" r="0.5" fill="#D9D9D9"/>
<circle cx="45.5" cy="22.5" r="0.5" fill="#D9D9D9"/>
<circle cx="46.5" cy="22.5" r="0.5" fill="#D9D9D9"/>
<circle cx="46.5" cy="24.5" r="0.5" fill="#D9D9D9"/>
<circle cx="47.5" cy="22.5" r="0.5" fill="#D9D9D9"/>
<circle cx="37.5" cy="17.5" r="0.5" fill="#D9D9D9"/>
<circle cx="48.5" cy="23.5" r="0.5" fill="#D9D9D9"/>
<circle cx="46.5" cy="21.5" r="0.5" fill="#D9D9D9"/>
<circle cx="45.5" cy="20.5" r="0.5" fill="#D9D9D9"/>
<circle cx="44.5" cy="19.5" r="0.5" fill="#D9D9D9"/>
<circle cx="43.5" cy="18.5" r="0.5" fill="#D9D9D9"/>
<circle cx="40.5" cy="15.5" r="0.5" fill="#D9D9D9"/>
<circle cx="41.5" cy="16.5" r="0.5" fill="#D9D9D9"/>
</svg>
