<svg width="33" height="32" viewBox="0 0 33 32" fill="none" xmlns="http://www.w3.org/2000/svg">
<rect y="16" width="16" height="16" fill="#D9D9D9"/>
<rect x="17" y="16" width="16" height="16" fill="#D9D9D9"/>
<rect x="8" width="16" height="16" fill="#D9D9D9"/>
<circle cx="16.5" cy="0.5" r="0.5" fill="#A1A1A1"/>
<circle cx="31.5" cy="20.5" r="0.5" fill="#A1A1A1"/>
<circle cx="29.5" cy="19.5" r="0.5" fill="#A1A1A1"/>
<circle cx="25.5" cy="17.5" r="0.5" fill="#A1A1A1"/>
<circle cx="27.5" cy="17.5" r="0.5" fill="#A1A1A1"/>
<circle cx="29.5" cy="17.5" r="0.5" fill="#A1A1A1"/>
<circle cx="31.5" cy="18.5" r="0.5" fill="#A1A1A1"/>
<circle cx="14.5" cy="20.5" r="0.5" fill="#A1A1A1"/>
<circle cx="12.5" cy="19.5" r="0.5" fill="#A1A1A1"/>
<circle cx="8.5" cy="17.5" r="0.5" fill="#A1A1A1"/>
<circle cx="10.5" cy="17.5" r="0.5" fill="#A1A1A1"/>
<circle cx="12.5" cy="17.5" r="0.5" fill="#A1A1A1"/>
<circle cx="14.5" cy="18.5" r="0.5" fill="#A1A1A1"/>
<circle cx="18.5" cy="0.5" r="0.5" fill="#A1A1A1"/>
<circle cx="22.5" cy="4.5" r="0.5" fill="#A1A1A1"/>
<circle cx="20.5" cy="3.5" r="0.5" fill="#A1A1A1"/>
<circle cx="18.5" cy="2.5" r="0.5" fill="#A1A1A1"/>
<circle cx="20.5" cy="1.5" r="0.5" fill="#A1A1A1"/>
<circle cx="22.5" cy="2.5" r="0.5" fill="#A1A1A1"/>
</svg>
